<?xml version="1.0" encoding="UTF-8" standalone="no"?>
<!-- Generator: Adobe Illustrator 16.0.0, SVG Export Plug-In . SVG Version: 6.00 Build 0)  -->

<svg
   xmlns:dc="http://purl.org/dc/elements/1.1/"
   xmlns:cc="http://creativecommons.org/ns#"
   xmlns:rdf="http://www.w3.org/1999/02/22-rdf-syntax-ns#"
   xmlns:svg="http://www.w3.org/2000/svg"
   xmlns="http://www.w3.org/2000/svg"
   xmlns:sodipodi="http://sodipodi.sourceforge.net/DTD/sodipodi-0.dtd"
   xmlns:inkscape="http://www.inkscape.org/namespaces/inkscape"
   version="1.1"
   id="Capa_1"
   x="0px"
   y="0px"
   width="93.884px"
   height="93.883px"
   viewBox="0 0 93.884 93.883"
   style="enable-background:new 0 0 93.884 93.883;"
   xml:space="preserve"
   sodipodi:docname="lupa.svg"
   inkscape:version="0.92.5 (2060ec1f9f, 2020-04-08)"><metadata
   id="metadata41"><rdf:RDF><cc:Work
       rdf:about=""><dc:format>image/svg+xml</dc:format><dc:type
         rdf:resource="http://purl.org/dc/dcmitype/StillImage" /><dc:title></dc:title></cc:Work></rdf:RDF></metadata><defs
   id="defs39" /><sodipodi:namedview
   pagecolor="#ffffff"
   bordercolor="#666666"
   borderopacity="1"
   objecttolerance="10"
   gridtolerance="10"
   guidetolerance="10"
   inkscape:pageopacity="0"
   inkscape:pageshadow="2"
   inkscape:window-width="640"
   inkscape:window-height="480"
   id="namedview37"
   showgrid="false"
   inkscape:zoom="2.513767"
   inkscape:cx="46.942001"
   inkscape:cy="46.941502"
   inkscape:window-x="0"
   inkscape:window-y="0"
   inkscape:window-maximized="0"
   inkscape:current-layer="Capa_1" />
<g
   id="g4"
   style="fill:#ffffff">
	<path
   d="M92.295,84.629L56.69,49.105c8.553-12.164,7.424-29.111-3.443-39.98C41.085-3.04,21.289-3.04,9.124,9.125   c-12.165,12.164-12.165,31.958,0,44.123c10.868,10.871,27.814,11.996,39.979,3.44l35.523,35.607c2.118,2.116,5.548,2.116,7.667,0   C94.414,90.176,94.414,86.748,92.295,84.629z M30.971,52.697c-12.018,0-21.762-9.741-21.762-21.758   c0-12.02,9.744-21.762,21.762-21.762c12.014,0,21.758,9.742,21.758,21.762C52.729,42.956,42.985,52.697,30.971,52.697z"
   id="path2"
   style="fill:#ffffff" />
</g>
<g
   id="g6">
</g>
<g
   id="g8">
</g>
<g
   id="g10">
</g>
<g
   id="g12">
</g>
<g
   id="g14">
</g>
<g
   id="g16">
</g>
<g
   id="g18">
</g>
<g
   id="g20">
</g>
<g
   id="g22">
</g>
<g
   id="g24">
</g>
<g
   id="g26">
</g>
<g
   id="g28">
</g>
<g
   id="g30">
</g>
<g
   id="g32">
</g>
<g
   id="g34">
</g>
</svg>