<svg width="372" height="352" viewBox="0 0 372 352" fill="none" xmlns="http://www.w3.org/2000/svg">
<rect x="12" y="3" width="340" height="340" rx="170" fill="#ffffff"/>
<path d="M168.243 0.199003C142.433 2.69468 123.112 7.75644 101.937 17.6054C83.3299 26.24 70.0681 35.1456 54.9537 48.9757C39.4115 63.3443 28.073 78.1212 18.4493 96.6048C9.46554 114.011 3.97482 131.08 0.90954 151.249C-0.30318 159.211 -0.30318 185.791 0.90954 193.753C5.97246 227.214 19.6621 257.236 41.1934 281.996C91.5287 339.812 174.946 360.457 248.453 333.335C295.507 315.929 333.723 279.701 352.26 234.906C359.819 216.489 363.669 198.815 364.45 178.237C366.161 131.551 347.837 86.5552 313.33 52.823C297.643 37.5075 282.316 26.9158 262.351 17.6758C244.384 9.30876 227.844 4.38428 207.808 1.4838C200.614 0.470043 174.448 -0.406437 168.243 0.199003ZM206.03 12.2092C243.033 17.4047 277.041 33.5264 303.063 58.2192C330.014 83.8553 346.553 115.63 351.973 152.263C353.327 161.64 353.115 185.795 351.616 195.101C347.197 222.29 336.074 247.789 319.39 268.905C316.607 272.482 312.832 276.867 310.975 278.754L307.694 282.126L306.909 279.902C303.059 269.715 295.147 258.109 285.735 248.732C266.056 229.168 240.392 217.295 207.451 212.571C195.473 210.818 168.808 210.818 156.83 212.571C125.816 217.024 101.93 227.411 82.5375 244.885C78.4827 248.602 73.0627 254.269 70.4959 257.441C66.2179 262.907 59.4437 274.442 57.4498 279.771L56.5942 282.133L53.3132 278.761C51.4606 276.871 47.6811 272.489 44.8985 268.912C11.9617 227.214 2.4087 172.57 19.3049 123.051C36.3425 73.3305 77.4113 34.4697 130.027 18.415C142.005 14.7049 152.128 12.8147 169.31 10.9948C174.518 10.4563 199.186 11.2659 206.03 12.2092Z" fill="#E5890B"/>
<path d="M169.314 63.1433C161.971 64.6288 154.985 67.1913 148.281 70.9014C141.366 74.7452 130.671 84.9356 126.393 91.8841C113.704 112.325 114.414 137.489 128.39 157.391C140.651 174.931 162.54 185.389 184.644 184.446C194.625 183.974 201.968 182.151 211.023 177.969C223.711 172.031 233.696 162.587 239.968 150.58C245.243 140.46 246.526 135.064 246.526 123.258C246.526 111.723 245.243 106.256 240.325 96.6115C227.42 71.3731 197.902 57.4761 169.314 63.1433Z" fill="#E5890B"/>
</svg>
