<?xml version="1.0" encoding="UTF-8" standalone="no"?>
<!-- Generator: Adobe Illustrator 19.0.0, SVG Export Plug-In . SVG Version: 6.00 Build 0)  -->

<svg
   xmlns:dc="http://purl.org/dc/elements/1.1/"
   xmlns:cc="http://creativecommons.org/ns#"
   xmlns:rdf="http://www.w3.org/1999/02/22-rdf-syntax-ns#"
   xmlns:svg="http://www.w3.org/2000/svg"
   xmlns="http://www.w3.org/2000/svg"
   xmlns:sodipodi="http://sodipodi.sourceforge.net/DTD/sodipodi-0.dtd"
   xmlns:inkscape="http://www.inkscape.org/namespaces/inkscape"
   version="1.1"
   id="Capa_1"
   x="0px"
   y="0px"
   viewBox="0 0 449.829 449.829"
   style="enable-background:new 0 0 449.829 449.829;"
   xml:space="preserve"
   sodipodi:docname="ideia.svg"
   inkscape:version="0.92.5 (2060ec1f9f, 2020-04-08)"><metadata
   id="metadata55"><rdf:RDF><cc:Work
       rdf:about=""><dc:format>image/svg+xml</dc:format><dc:type
         rdf:resource="http://purl.org/dc/dcmitype/StillImage" /><dc:title></dc:title></cc:Work></rdf:RDF></metadata><defs
   id="defs53" /><sodipodi:namedview
   pagecolor="#ffffff"
   bordercolor="#666666"
   borderopacity="1"
   objecttolerance="10"
   gridtolerance="10"
   guidetolerance="10"
   inkscape:pageopacity="0"
   inkscape:pageshadow="2"
   inkscape:window-width="640"
   inkscape:window-height="480"
   id="namedview51"
   showgrid="false"
   inkscape:zoom="0.5246438"
   inkscape:cx="224.91451"
   inkscape:cy="224.91451"
   inkscape:window-x="0"
   inkscape:window-y="0"
   inkscape:window-maximized="0"
   inkscape:current-layer="g18" />
<g
   id="g18">
	<g
   id="g16"
   style="fill:#ffffff">
		<g
   id="g14"
   style="fill:#ffffff">
			<path
   d="M307.461,138.449c-24.123-22.86-56.7-34.603-89.861-32.392c-63.469,3.833-113.187,56.06-113.894,119.641     c-0.522,45.453,27.167,86.727,63.739,107.102v59.559c0,31.739,25.73,57.469,57.469,57.469s57.469-25.73,57.469-57.469v-59.037     c38.589-22.021,62.787-62.682,63.739-107.102C345.668,192.932,331.715,161.254,307.461,138.449z M224.914,427.886     c-17.642-0.784-32.286-13.898-35.004-31.347h70.008C257.2,413.988,242.557,427.101,224.914,427.886z M261.486,375.641h-73.143     v-15.673h73.143V375.641z M266.71,317.127c-3.345,1.929-5.354,5.545-5.224,9.404v12.539h-73.143v-12.539     c0.209-4.016-1.795-7.825-5.224-9.927c-35.845-15.692-58.869-51.256-58.514-90.384c0.945-52.435,41.734-95.489,94.041-99.265     h6.269c54.878,0.278,99.458,44.393,100.31,99.265C325.246,265.379,302.362,300.93,266.71,317.127z"
   id="path2"
   style="fill:#ffffff" />
			<path
   d="M224.914,77.322c5.771,0,10.449-4.678,10.449-10.449V10.449C235.363,4.678,230.685,0,224.914,0     s-10.449,4.678-10.449,10.449v56.424C214.465,72.644,219.143,77.322,224.914,77.322z"
   id="path4"
   style="fill:#ffffff" />
			<path
   d="M70.792,208.457H14.367c-5.771,0-10.449,4.678-10.449,10.449s4.678,10.449,10.449,10.449h56.424     c5.771,0,10.449-4.678,10.449-10.449S76.563,208.457,70.792,208.457z"
   id="path6"
   style="fill:#ffffff" />
			<path
   d="M435.461,208.457h-56.424c-5.771,0-10.449,4.678-10.449,10.449s4.678,10.449,10.449,10.449h56.424     c5.771,0,10.449-4.678,10.449-10.449S441.232,208.457,435.461,208.457z"
   id="path8"
   style="fill:#ffffff" />
			<path
   d="M68.702,79.412l40.229,39.706c3.706,4.04,9.986,4.31,14.025,0.603c0.21-0.192,0.411-0.394,0.603-0.603     c4.04-3.706,4.31-9.986,0.603-14.025c-0.192-0.21-0.394-0.411-0.603-0.603L83.331,64.784c-3.462-4.617-10.012-5.552-14.629-2.09     c-4.617,3.462-5.552,10.012-2.09,14.629C67.206,78.114,67.91,78.818,68.702,79.412z"
   id="path10"
   style="fill:#ffffff" />
			<path
   d="M326.269,119.118c1.929,1.969,4.558,3.095,7.314,3.135c2.756-0.039,5.385-1.166,7.314-3.135l40.229-39.706     c4.617-3.462,5.552-10.012,2.09-14.629c-3.462-4.617-10.012-5.552-14.629-2.09c-0.792,0.594-1.496,1.298-2.09,2.09     l-40.229,39.706c-4.04,3.706-4.31,9.986-0.603,14.025C325.858,118.725,326.06,118.926,326.269,119.118z"
   id="path12"
   style="fill:#ffffff" />
		</g>
	</g>
</g>
<g
   id="g20">
</g>
<g
   id="g22">
</g>
<g
   id="g24">
</g>
<g
   id="g26">
</g>
<g
   id="g28">
</g>
<g
   id="g30">
</g>
<g
   id="g32">
</g>
<g
   id="g34">
</g>
<g
   id="g36">
</g>
<g
   id="g38">
</g>
<g
   id="g40">
</g>
<g
   id="g42">
</g>
<g
   id="g44">
</g>
<g
   id="g46">
</g>
<g
   id="g48">
</g>
</svg>