<?xml version="1.0" encoding="UTF-8" standalone="no"?>
<svg
   xmlns:dc="http://purl.org/dc/elements/1.1/"
   xmlns:cc="http://creativecommons.org/ns#"
   xmlns:rdf="http://www.w3.org/1999/02/22-rdf-syntax-ns#"
   xmlns:svg="http://www.w3.org/2000/svg"
   xmlns="http://www.w3.org/2000/svg"
   xmlns:sodipodi="http://sodipodi.sourceforge.net/DTD/sodipodi-0.dtd"
   xmlns:inkscape="http://www.inkscape.org/namespaces/inkscape"
   id="Layer_1"
   enable-background="new 0 0 70 70"
   height="512"
   viewBox="0 0 57.69529 70"
   width="422"
   version="1.1"
   sodipodi:docname="lampada.svg"
   inkscape:version="0.92.5 (2060ec1f9f, 2020-04-08)">
  <metadata
     id="metadata27">
    <rdf:RDF>
      <cc:Work
         rdf:about="">
        <dc:format>image/svg+xml</dc:format>
        <dc:type
           rdf:resource="http://purl.org/dc/dcmitype/StillImage" />
        <dc:title></dc:title>
      </cc:Work>
    </rdf:RDF>
  </metadata>
  <defs
     id="defs25" />
  <sodipodi:namedview
     pagecolor="#ffffff"
     bordercolor="#666666"
     borderopacity="1"
     objecttolerance="10"
     gridtolerance="10"
     guidetolerance="10"
     inkscape:pageopacity="0"
     inkscape:pageshadow="2"
     inkscape:window-width="640"
     inkscape:window-height="480"
     id="namedview23"
     showgrid="false"
     inkscape:zoom="0.4609375"
     inkscape:cx="256"
     inkscape:cy="256"
     inkscape:window-x="0"
     inkscape:window-y="0"
     inkscape:window-maximized="0"
     inkscape:current-layer="Layer_1" />
  <path
     d="m 35.819348,57.596191 c 0.552246,0 1,-0.447754 1,-1 0,-5.710449 2.00586,-11.044433 5.647461,-15.020019 3.279297,-3.57959 5.084961,-8.226074 5.084961,-13.083984 0,-5.500977 -2.349609,-10.763184 -6.446289,-14.4375 C 36.951672,10.32959 31.586926,8.6152344 25.988294,9.2231445 17.027356,10.200684 9.8354615,17.419922 8.8877055,26.388184 c -0.583009,5.514648 1.2001975,11.017089 4.8920915,15.096679 3.687989,4.075684 5.719239,9.437012 5.719239,15.111328 0,0.552247 0.447754,1 1,1 h 0.572754 v 2.432618 h -0.746582 c -0.552246,0 -1,0.447754 -1,1 0,0.552246 0.447754,1 1,1 h 0.746582 v 1.782226 c 0,0.265137 0.105468,0.519531 0.292968,0.707031 l 3.188965,3.188965 C 24.741223,67.894531 24.995618,68 25.260755,68 h 5.80664 c 0.265137,0 0.519531,-0.105469 0.707031,-0.292969 l 3.188965,-3.188965 c 0.1875,-0.1875 0.292969,-0.441894 0.292969,-0.707031 v -1.782226 h 0.746582 c 0.552246,0 1,-0.447754 1,-1 0,-0.552246 -0.447754,-1 -1,-1 H 35.25636 V 57.596191 Z M 15.262708,40.143066 c -3.359375,-3.712402 -4.916992,-8.52246 -4.385742,-13.544921 0.849121,-8.039551 7.295898,-14.510254 15.328125,-15.386719 5.025878,-0.549805 9.839355,0.991211 13.564941,4.332519 3.674316,3.294922 5.781738,8.014649 5.781738,12.948242 0,4.356446 -1.61914,8.523438 -4.55957,11.733399 -3.766602,4.111328 -5.931641,9.536621 -6.153809,15.370605 H 29.164075 V 34.350159 c 2.603332,-0.473267 4.584961,-2.752503 4.584961,-5.490296 0,-3.07959 -2.505371,-5.584961 -5.584961,-5.584961 -3.07959,0 -5.584961,2.505372 -5.584961,5.584961 0,2.737793 1.981628,5.017029 4.584961,5.490296 V 55.596191 H 21.479993 C 21.256848,49.803711 19.06886,44.348633 15.262708,40.143066 Z m 12.901367,-7.698242 c -1.976563,0 -3.584961,-1.608398 -3.584961,-3.584961 0,-1.976562 1.608398,-3.584961 3.584961,-3.584961 1.976562,0 3.584961,1.608399 3.584961,3.584961 0,1.976563 -1.608399,3.584961 -3.584961,3.584961 z M 33.25636,63.396973 30.653333,66 H 25.674817 L 23.07179,63.396973 v -1.368164 h 10.18457 z m 0,-3.368164 H 23.07179 v -2.432618 h 10.18457 z"
     id="path2"
     inkscape:connector-curvature="0"
     style="fill:#ffffff" />
  <path
     d="M 28.741223,6.2363281 V 3 c 0,-0.5522461 -0.447754,-1 -1,-1 -0.552246,0 -1,0.4477539 -1,1 v 3.2363281 c 0,0.5522461 0.447754,1 1,1 0.552246,0 1,-0.4477539 1,-1 z"
     id="path4"
     inkscape:connector-curvature="0"
     style="fill:#ffffff" />
  <path
     d="m 16.699231,10.421875 c 0.169434,0 0.341797,-0.04297 0.499024,-0.133789 0.478515,-0.276367 0.642089,-0.8876954 0.36621,-1.366211 L 15.946301,6.1191406 C 15.668958,5.640625 15.057629,5.4755859 14.58009,5.7529297 14.101575,6.0292969 13.938001,6.640625 14.21388,7.1191406 l 1.618164,2.8027344 c 0.185547,0.320801 0.521484,0.5 0.867187,0.5 z"
     id="path6"
     inkscape:connector-curvature="0"
     style="fill:#ffffff" />
  <path
     d="m 8.2275485,18.568359 c 0.1577145,0.09082 0.3295895,0.133789 0.499024,0.133789 0.3457035,0 0.681642,-0.179199 0.8671885,-0.5 0.2758795,-0.478515 0.111817,-1.089843 -0.3662105,-1.36621 L 6.424322,15.217774 C 5.9443405,14.940918 5.334476,15.105469 5.0581085,15.583984 4.782229,16.0625 4.9462925,16.673828 5.4243205,16.950195 Z"
     id="path8"
     inkscape:connector-curvature="0"
     style="fill:#ffffff" />
  <path
     d="m 1.7280273,28.858398 c 0,0.552246 0.4477539,1 1,1 h 3.2363332 c 0.552247,0 1.0000015,-0.447754 1.0000015,-1 0,-0.552246 -0.4477545,-1 -1.0000015,-1 H 2.7280273 c -0.552246,0 -1,0.447754 -1,1 z"
     id="path10"
     inkscape:connector-curvature="0"
     style="fill:#ffffff" />
  <path
     d="m 6.34815,42.520019 c 0.1694345,0 0.3417975,-0.04297 0.499024,-0.133789 l 2.80274,-1.618164 C 10.12843,40.491699 10.292005,39.880371 10.016126,39.401855 9.7392695,38.92334 9.126964,38.759277 8.6499125,39.035644 L 5.847172,40.653809 c -0.4785155,0.276367 -0.64209,0.887695 -0.3662115,1.36621 0.1855475,0.320801 0.521486,0.5 0.8671895,0.5 z"
     id="path12"
     inkscape:connector-curvature="0"
     style="fill:#ffffff" />
  <path
     d="m 47.100598,40.036133 2.803223,1.618164 c 0.157715,0.09082 0.32959,0.133789 0.499023,0.133789 0.345704,0 0.681641,-0.179199 0.867188,-0.5 0.275879,-0.478516 0.111816,-1.089844 -0.366211,-1.366211 l -2.803223,-1.618164 c -0.480957,-0.276367 -1.089843,-0.112305 -1.366211,0.366211 -0.275878,0.478515 -0.111816,1.089844 0.366211,1.366211 z"
     id="path14"
     inkscape:connector-curvature="0"
     style="fill:#ffffff" />
  <path
     d="m 54.60011,28.013184 c 0,-0.552247 -0.447754,-1 -1,-1 h -3.236328 c -0.552246,0 -1,0.447753 -1,1 0,0.552246 0.447754,1 1,1 h 3.236328 c 0.552246,0 1,-0.447754 1,-1 z"
     id="path16"
     inkscape:connector-curvature="0"
     style="fill:#ffffff" />
  <path
     d="m 47.179212,17.970215 c 0.169433,0 0.341797,-0.04297 0.499023,-0.133789 l 2.802734,-1.618164 c 0.478516,-0.276368 0.64209,-0.887696 0.366211,-1.366211 -0.276855,-0.478516 -0.88916,-0.643067 -1.366211,-0.366211 l -2.802734,1.618164 c -0.478516,0.276367 -0.64209,0.887695 -0.366211,1.366211 0.185547,0.320801 0.521485,0.5 0.867188,0.5 z"
     id="path18"
     inkscape:connector-curvature="0"
     style="fill:#ffffff" />
  <path
     d="m 38.896985,9.9990234 c 0.345703,0 0.681641,-0.1791992 0.867188,-0.5 L 41.382337,6.696289 C 41.658216,6.2177734 41.494642,5.6064452 41.016126,5.3300781 40.535657,5.0527343 39.925794,5.2182617 39.649915,5.696289 l -1.618164,2.8027344 c -0.275879,0.4785156 -0.112305,1.0898438 0.366211,1.3662109 0.157715,0.09082 0.32959,0.1337891 0.499023,0.1337891 z"
     id="path20"
     inkscape:connector-curvature="0"
     style="fill:#ffffff" />
</svg>
